<svg version="1.1" id="Layer_1" xmlns="http://www.w3.org/2000/svg" xmlns:xlink="http://www.w3.org/1999/xlink" x="0px" y="0px"
	 width="100%" viewBox="0 0 568 118" enable-background="new 0 0 568 118" xml:space="preserve">
<path fill="#FBFBFB" opacity="1.000000" stroke="none" 
	d="
M380.000000,119.000000 
	C253.333359,119.000000 127.166710,119.000000 1.000051,119.000000 
	C1.000034,79.666695 1.000034,40.333393 1.000017,1.000067 
	C190.333267,1.000044 379.666534,1.000044 568.999878,1.000022 
	C568.999878,40.333263 568.999878,79.666527 568.999939,118.999893 
	C506.166656,119.000000 443.333344,119.000000 380.000000,119.000000 
M398.906189,99.305405 
	C406.008850,89.588638 413.111542,79.871872 420.214203,70.155113 
	C420.556671,70.255089 420.899139,70.355072 421.241608,70.455055 
	C421.241608,80.967003 421.241608,91.478958 421.241608,101.880966 
	C428.114899,101.880966 434.379272,101.880966 440.671326,101.880966 
	C440.671326,72.437416 440.671326,43.272968 440.671326,13.271255 
	C425.710785,33.617401 411.265808,53.262424 396.659454,73.126862 
	C381.918121,53.150848 367.453369,33.549599 352.509033,13.298512 
	C352.509033,43.483063 352.509033,72.682495 352.509033,101.907730 
	C359.111084,101.907730 365.377808,101.907730 372.091888,101.907730 
	C372.091888,91.286591 372.091888,80.904610 372.091888,68.972801 
	C380.811371,80.745125 388.629059,91.299904 396.573822,102.026268 
	C397.383514,101.088623 397.921448,100.465691 398.906189,99.305405 
M252.831879,99.243362 
	C252.831879,89.681351 252.831879,80.119331 252.831879,69.060722 
	C261.576782,80.864349 269.406677,91.432953 277.363831,102.173309 
	C285.404572,91.271507 293.133209,80.792862 300.861847,70.314224 
	C301.200531,70.442535 301.539246,70.570854 301.877930,70.699165 
	C301.877930,81.059708 301.877930,91.420242 301.877930,101.947952 
	C308.627380,101.947952 314.882294,101.947952 321.316528,101.947952 
	C321.316528,72.589363 321.316528,43.452271 321.316528,13.285169 
	C306.346344,33.655571 292.001923,53.174473 277.351166,73.110229 
	C262.662231,53.220680 248.145981,33.564964 233.274048,13.427612 
	C233.274048,43.517773 233.274048,72.745911 233.274048,102.166428 
	C238.939682,102.166428 244.262299,102.275948 249.573349,102.076942 
	C250.677536,102.035568 251.738892,100.851181 252.831879,99.243362 
M57.499969,104.867630 
	C71.070831,104.867630 84.641693,104.867630 98.275970,104.867630 
	C98.275970,83.881554 98.275970,63.622440 98.275970,43.316986 
	C84.102554,43.316986 70.203293,43.316986 55.824356,43.316986 
	C55.824356,56.179855 55.824356,68.748444 55.824356,81.800987 
	C38.955238,81.800987 22.565212,81.800987 6.303242,81.800987 
	C6.303242,89.725777 6.303242,97.147171 6.303242,104.867622 
	C23.239429,104.867622 39.869698,104.867622 57.499969,104.867630 
M148.565826,100.089279 
	C149.509109,100.413918 150.448792,100.749466 151.396194,101.061607 
	C174.314774,108.612541 196.720047,96.624084 201.532333,73.171097 
	C203.410416,64.018059 202.528122,54.273796 202.666885,44.795364 
	C202.819962,34.340721 202.701797,23.882113 202.701797,13.240219 
	C195.835510,13.240219 189.455780,13.240219 182.834518,13.240219 
	C182.834518,15.368554 182.834534,17.182192 182.834518,18.995831 
	C182.834396,33.826660 182.888885,48.657761 182.814133,63.488216 
	C182.767715,72.695610 178.512161,79.555908 171.407578,82.298889 
	C158.733322,87.192230 146.218384,78.449120 146.046631,64.318436 
	C145.858292,48.823334 146.002899,33.324192 146.002441,17.826809 
	C146.002396,16.238350 146.002441,14.649889 146.002441,13.170853 
	C139.031448,13.170853 132.758011,13.170853 126.070305,13.170853 
	C126.070305,29.536266 126.107094,45.658630 126.060196,61.780746 
	C126.011070,78.671875 132.638596,91.684464 148.565826,100.089279 
M98.539055,20.574175 
	C98.539055,17.792833 98.539055,15.011493 98.539055,12.316813 
	C67.354546,12.316813 36.774067,12.316813 6.238659,12.316813 
	C6.238659,32.901249 6.238659,53.167984 6.238659,73.636612 
	C20.221621,73.636612 33.965672,73.636612 48.301514,73.636612 
	C48.301514,60.699680 48.301514,47.976360 48.301514,34.868347 
	C65.314476,34.868347 81.739113,34.868347 98.538956,34.868347 
	C98.538956,30.165194 98.538956,25.857388 98.539055,20.574175 
M492.656067,95.120842 
	C499.994965,81.835655 507.333832,68.550468 515.020813,54.635151 
	C523.590393,69.942780 531.660706,84.447639 539.867859,98.874580 
	C540.651306,100.251778 542.243713,102.040192 543.539734,102.107208 
	C549.971741,102.439796 556.430298,102.258896 563.916504,102.258896 
	C547.206970,72.148643 530.947266,42.848881 514.383240,13.000860 
	C497.782928,42.923344 481.550812,72.182121 464.858368,102.270592 
	C470.927979,102.270592 475.924927,101.842018 480.814819,102.382286 
	C486.547028,103.015610 490.424469,101.395477 492.656067,95.120842 
z"/>
<path fill="#AD2323" opacity="1.000000" stroke="none" 
	d="
M398.682800,99.574081 
	C397.921448,100.465691 397.383514,101.088623 396.573822,102.026268 
	C388.629059,91.299904 380.811371,80.745125 372.091888,68.972801 
	C372.091888,80.904610 372.091888,91.286591 372.091888,101.907730 
	C365.377808,101.907730 359.111084,101.907730 352.509033,101.907730 
	C352.509033,72.682495 352.509033,43.483063 352.509033,13.298512 
	C367.453369,33.549599 381.918121,53.150848 396.659454,73.126862 
	C411.265808,53.262424 425.710785,33.617401 440.671326,13.271255 
	C440.671326,43.272968 440.671326,72.437416 440.671326,101.880966 
	C434.379272,101.880966 428.114899,101.880966 421.241608,101.880966 
	C421.241608,91.478958 421.241608,80.967003 421.241608,70.455055 
	C420.899139,70.355072 420.556671,70.255089 420.214203,70.155113 
	C413.111542,79.871872 406.008850,89.588638 398.682800,99.574081 
z"/>
<path fill="#812424" opacity="1.000000" stroke="none" 
	d="
M252.825928,99.718460 
	C251.738892,100.851181 250.677536,102.035568 249.573349,102.076942 
	C244.262299,102.275948 238.939682,102.166428 233.274048,102.166428 
	C233.274048,72.745911 233.274048,43.517773 233.274048,13.427612 
	C248.145981,33.564964 262.662231,53.220680 277.351166,73.110229 
	C292.001923,53.174473 306.346344,33.655571 321.316528,13.285169 
	C321.316528,43.452271 321.316528,72.589363 321.316528,101.947952 
	C314.882294,101.947952 308.627380,101.947952 301.877930,101.947952 
	C301.877930,91.420242 301.877930,81.059708 301.877930,70.699165 
	C301.539246,70.570854 301.200531,70.442535 300.861847,70.314224 
	C293.133209,80.792862 285.404572,91.271507 277.363831,102.173309 
	C269.406677,91.432953 261.576782,80.864349 252.831879,69.060722 
	C252.831879,80.119331 252.831879,89.681351 252.825928,99.718460 
z"/>
<path fill="#272324" opacity="1.000000" stroke="none" 
	d="
M56.999966,104.867630 
	C39.869698,104.867622 23.239429,104.867622 6.303242,104.867622 
	C6.303242,97.147171 6.303242,89.725777 6.303242,81.800987 
	C22.565212,81.800987 38.955238,81.800987 55.824356,81.800987 
	C55.824356,68.748444 55.824356,56.179855 55.824356,43.316986 
	C70.203293,43.316986 84.102554,43.316986 98.275970,43.316986 
	C98.275970,63.622440 98.275970,83.881554 98.275970,104.867630 
	C84.641693,104.867630 71.070831,104.867630 56.999966,104.867630 
z"/>
<path fill="#532223" opacity="1.000000" stroke="none" 
	d="
M148.221741,99.931908 
	C132.638596,91.684464 126.011070,78.671875 126.060196,61.780746 
	C126.107094,45.658630 126.070305,29.536266 126.070305,13.170853 
	C132.758011,13.170853 139.031448,13.170853 146.002441,13.170853 
	C146.002441,14.649889 146.002396,16.238350 146.002441,17.826809 
	C146.002899,33.324192 145.858292,48.823334 146.046631,64.318436 
	C146.218384,78.449120 158.733322,87.192230 171.407578,82.298889 
	C178.512161,79.555908 182.767715,72.695610 182.814133,63.488216 
	C182.888885,48.657761 182.834396,33.826660 182.834518,18.995831 
	C182.834534,17.182192 182.834518,15.368554 182.834518,13.240219 
	C189.455780,13.240219 195.835510,13.240219 202.701797,13.240219 
	C202.701797,23.882113 202.819962,34.340721 202.666885,44.795364 
	C202.528122,54.273796 203.410416,64.018059 201.532333,73.171097 
	C196.720047,96.624084 174.314774,108.612541 151.396194,101.061607 
	C150.448792,100.749466 149.509109,100.413918 148.221741,99.931908 
z"/>
<path fill="#252122" opacity="1.000000" stroke="none" 
	d="
M98.539001,21.061878 
	C98.538956,25.857388 98.538956,30.165194 98.538956,34.868347 
	C81.739113,34.868347 65.314476,34.868347 48.301514,34.868347 
	C48.301514,47.976360 48.301514,60.699680 48.301514,73.636612 
	C33.965672,73.636612 20.221621,73.636612 6.238659,73.636612 
	C6.238659,53.167984 6.238659,32.901249 6.238659,12.316813 
	C36.774067,12.316813 67.354546,12.316813 98.539055,12.316813 
	C98.539055,15.011493 98.539055,17.792833 98.539001,21.061878 
z"/>
<path fill="#D92323" opacity="1.000000" stroke="none" 
	d="
M492.461487,95.441406 
	C490.424469,101.395477 486.547028,103.015610 480.814819,102.382286 
	C475.924927,101.842018 470.927979,102.270592 464.858368,102.270592 
	C481.550812,72.182121 497.782928,42.923344 514.383240,13.000860 
	C530.947266,42.848881 547.206970,72.148643 563.916504,102.258896 
	C556.430298,102.258896 549.971741,102.439796 543.539734,102.107208 
	C542.243713,102.040192 540.651306,100.251778 539.867859,98.874580 
	C531.660706,84.447639 523.590393,69.942780 515.020813,54.635151 
	C507.333832,68.550468 499.994965,81.835655 492.461487,95.441406 
z"/>
</svg>